<?xml version="1.0" standalone="no"?>
<!DOCTYPE svg PUBLIC "-//W3C//DTD SVG 20010904//EN"
 "http://www.w3.org/TR/2001/REC-SVG-20010904/DTD/svg10.dtd">
<svg version="1.0" xmlns="http://www.w3.org/2000/svg"
 width="500.000000pt" height="500.000000pt" viewBox="0 0 500.000000 500.000000"
 preserveAspectRatio="xMidYMid meet">

<g transform="translate(0.000000,500.000000) scale(0.100000,-0.100000)"
fill="#000000" stroke="none">
<path d="M2287 4119 c-242 -57 -556 -454 -706 -891 -22 -65 -48 -153 -57 -195
-23 -108 -24 -298 -1 -383 31 -114 112 -268 167 -317 64 -57 188 -70 233 -25
28 29 16 37 -24 16 -118 -61 -181 -30 -258 128 -110 224 -109 429 4 733 166
444 436 792 672 865 112 35 161 24 200 -45 75 -133 104 -440 68 -735 -49 -404
-153 -806 -313 -1207 -104 -260 -244 -512 -295 -529 -9 -3 -43 0 -75 7 -73 15
-205 15 -258 1 -53 -15 -78 -43 -70 -77 5 -20 21 -33 64 -53 107 -49 231 -40
337 23 32 19 66 35 77 35 23 0 88 -32 228 -113 209 -120 541 -264 672 -291 91
-19 151 -20 273 -5 163 20 236 62 314 183 72 110 92 226 51 294 -28 46 -40 40
-33 -17 16 -139 -93 -325 -225 -384 -132 -58 -356 -62 -517 -9 -117 39 -282
113 -426 192 -63 35 -160 88 -216 117 -57 30 -103 56 -103 58 0 2 23 34 50 71
61 80 100 156 185 358 219 527 358 1132 359 1556 0 304 -47 477 -155 574 -74
68 -135 86 -222 65z m-362 -2611 c29 -27 -120 -98 -206 -98 -63 0 -89 13 -89
45 0 31 39 57 99 66 57 8 182 0 196 -13z"/>
<path d="M3364 3835 c-90 -97 -179 -316 -312 -765 -22 -74 -54 -189 -72 -255
-49 -186 -47 -182 -86 -195 -42 -14 -44 -30 -4 -30 17 0 30 -4 30 -9 0 -5 -9
-51 -19 -102 -49 -238 -128 -747 -133 -854 -3 -58 -2 -60 22 -60 21 0 25 5 28
35 2 32 17 126 88 560 32 193 82 422 95 435 5 5 94 13 198 16 187 6 231 12
231 30 0 6 -79 7 -210 3 -207 -7 -210 -7 -210 13 0 75 206 756 285 945 44 103
97 197 130 228 26 25 27 25 42 5 12 -16 14 -39 10 -110 -9 -146 -78 -345 -182
-527 -26 -44 -44 -83 -40 -86 15 -15 106 138 167 281 83 191 114 402 67 461
-33 42 -74 36 -125 -19z"/>
</g>
</svg>
